<svg width="38" height="38" viewBox="0 0 38 38" fill="none" xmlns="http://www.w3.org/2000/svg">
<path d="M12.7101 30.4647C12.7101 30.62 12.5339 30.7443 12.3117 30.7443C12.0589 30.7676 11.8827 30.6433 11.8827 30.4647C11.8827 30.3093 12.0589 30.1851 12.281 30.1851C12.5109 30.1618 12.7101 30.286 12.7101 30.4647ZM10.3274 30.1152C10.2738 30.2705 10.427 30.4491 10.6569 30.4957C10.856 30.5734 11.0859 30.4957 11.1319 30.3404C11.1778 30.1851 11.0323 30.0064 10.8024 29.9365C10.6032 29.8822 10.381 29.9598 10.3274 30.1152ZM13.7137 29.9831C13.4915 30.0375 13.3383 30.1851 13.3613 30.3637C13.3843 30.519 13.5835 30.62 13.8133 30.5657C14.0355 30.5113 14.1887 30.3637 14.1657 30.2084C14.1427 30.0608 13.9359 29.9598 13.7137 29.9831ZM18.7548 0.219788C8.12863 0.219788 0 8.39849 0 19.1714C0 27.785 5.34758 35.156 12.9859 37.7502C13.9665 37.9288 14.3113 37.3152 14.3113 36.8104C14.3113 36.3288 14.2883 33.6725 14.2883 32.0414C14.2883 32.0414 8.9254 33.2064 7.79919 29.7268C7.79919 29.7268 6.92581 27.4666 5.66935 26.8841C5.66935 26.8841 3.91492 25.6646 5.79194 25.6879C5.79194 25.6879 7.6996 25.8433 8.74919 27.6918C10.427 30.6899 13.2387 29.8278 14.3343 29.3152C14.5105 28.0724 15.0085 27.2103 15.5601 26.6977C11.2774 26.2161 6.95645 25.587 6.95645 18.1151C6.95645 15.9791 7.53871 14.9073 8.76452 13.5403C8.56532 13.0354 7.91411 10.9539 8.96371 8.26645C10.5649 7.76159 14.25 10.3636 14.25 10.3636C15.7823 9.9286 17.4294 9.70336 19.0613 9.70336C20.6931 9.70336 22.3403 9.9286 23.8726 10.3636C23.8726 10.3636 27.5577 7.75383 29.1589 8.26645C30.2085 10.9616 29.5573 13.0354 29.3581 13.5403C30.5839 14.915 31.3347 15.9869 31.3347 18.1151C31.3347 25.6103 26.8222 26.2083 22.5395 26.6977C23.2444 27.3113 23.8419 28.4763 23.8419 30.3016C23.8419 32.9191 23.819 36.1579 23.819 36.7948C23.819 37.2997 24.1714 37.9133 25.1444 37.7346C32.8056 35.156 38 27.785 38 19.1714C38 8.39849 29.381 0.219788 18.7548 0.219788ZM7.44677 27.0083C7.34718 27.086 7.37016 27.2647 7.5004 27.4122C7.62298 27.5365 7.79919 27.5909 7.89879 27.4899C7.99839 27.4122 7.9754 27.2336 7.84516 27.086C7.72258 26.9617 7.54637 26.9074 7.44677 27.0083ZM6.61936 26.3792C6.56573 26.4802 6.64234 26.6045 6.79556 26.6821C6.91815 26.7598 7.07137 26.7365 7.125 26.6278C7.17863 26.5268 7.10202 26.4025 6.94879 26.3248C6.79556 26.2782 6.67298 26.3015 6.61936 26.3792ZM9.10161 29.1443C8.97903 29.2453 9.025 29.4783 9.20121 29.6258C9.37742 29.8045 9.5996 29.8278 9.69919 29.7035C9.79879 29.6025 9.75282 29.3695 9.5996 29.222C9.43105 29.0433 9.20121 29.02 9.10161 29.1443ZM8.22823 28.0025C8.10565 28.0802 8.10565 28.2821 8.22823 28.4608C8.35081 28.6394 8.55766 28.7171 8.65726 28.6394C8.77984 28.5385 8.77984 28.3365 8.65726 28.1579C8.55 27.9792 8.35081 27.9016 8.22823 28.0025Z" fill="#222222"/>
</svg>
