<svg width="37" height="36" viewBox="0 0 37 36" fill="none" xmlns="http://www.w3.org/2000/svg">
<path d="M18.5078 8.69946C13.5391 8.69946 9.53125 12.684 9.53125 17.6238C9.53125 22.5637 13.5391 26.5481 18.5078 26.5481C23.4766 26.5481 27.4844 22.5637 27.4844 17.6238C27.4844 12.684 23.4766 8.69946 18.5078 8.69946ZM18.5078 23.4258C15.2969 23.4258 12.6719 20.8238 12.6719 17.6238C12.6719 14.4238 15.2891 11.8218 18.5078 11.8218C21.7266 11.8218 24.3438 14.4238 24.3438 17.6238C24.3438 20.8238 21.7188 23.4258 18.5078 23.4258ZM29.9453 8.33441C29.9453 9.4917 29.0078 10.416 27.8516 10.416C26.6875 10.416 25.7578 9.48394 25.7578 8.33441C25.7578 7.18489 26.6953 6.25284 27.8516 6.25284C29.0078 6.25284 29.9453 7.18489 29.9453 8.33441ZM35.8906 10.4471C35.7578 7.65868 35.1172 5.18876 33.0625 3.15379C31.0156 1.11882 28.5313 0.481926 25.7266 0.342119C22.8359 0.179011 14.1719 0.179011 11.2813 0.342119C8.48438 0.474159 6 1.11106 3.94531 3.14602C1.89063 5.18099 1.25781 7.65091 1.11719 10.4393C0.953125 13.3131 0.953125 21.9268 1.11719 24.8006C1.25 27.5889 1.89063 30.0589 3.94531 32.0938C6 34.1288 8.47656 34.7657 11.2813 34.9055C14.1719 35.0686 22.8359 35.0686 25.7266 34.9055C28.5313 34.7735 31.0156 34.1366 33.0625 32.0938C35.1094 30.0589 35.75 27.5889 35.8906 24.8006C36.0547 21.9268 36.0547 13.3209 35.8906 10.4471ZM32.1562 27.8841C31.5469 29.4064 30.3672 30.5792 28.8281 31.1928C26.5234 32.1016 21.0547 31.8919 18.5078 31.8919C15.9609 31.8919 10.4844 32.0938 8.1875 31.1928C6.65625 30.587 5.47656 29.4142 4.85938 27.8841C3.94531 25.5928 4.15625 20.1559 4.15625 17.6238C4.15625 15.0917 3.95313 9.64705 4.85938 7.36353C5.46875 5.84119 6.64844 4.66837 8.1875 4.05477C10.4922 3.14602 15.9609 3.35573 18.5078 3.35573C21.0547 3.35573 26.5313 3.15379 28.8281 4.05477C30.3594 4.6606 31.5391 5.83342 32.1562 7.36353C33.0703 9.65481 32.8594 15.0917 32.8594 17.6238C32.8594 20.1559 33.0703 25.6006 32.1562 27.8841Z" fill="#222222"/>
</svg>
