<svg width="35" height="36" viewBox="0 0 35 36" fill="none" xmlns="http://www.w3.org/2000/svg">
<path d="M32.5 0.219788H2.49219C1.11719 0.219788 0 1.34601 0 2.72854V32.5074C0 33.8899 1.11719 35.0162 2.49219 35.0162H32.5C33.875 35.0162 35 33.8899 35 32.5074V2.72854C35 1.34601 33.875 0.219788 32.5 0.219788ZM10.5781 30.0453H5.39062V13.4393H10.5859V30.0453H10.5781ZM7.98438 11.1713C6.32031 11.1713 4.97656 9.82763 4.97656 8.18101C4.97656 6.5344 6.32031 5.1907 7.98438 5.1907C9.64062 5.1907 10.9922 6.5344 10.9922 8.18101C10.9922 9.83539 9.64844 11.1713 7.98438 11.1713ZM30.0234 30.0453H24.8359V21.9675C24.8359 20.0413 24.7969 17.5636 22.1406 17.5636C19.4375 17.5636 19.0234 19.6607 19.0234 21.8277V30.0453H13.8359V13.4393H18.8125V15.7073H18.8828C19.5781 14.4024 21.2734 13.0277 23.7969 13.0277C29.0469 13.0277 30.0234 16.4685 30.0234 20.9423V30.0453Z" fill="#222222"/>
</svg>
