<svg width="39" height="33" viewBox="0 0 39 33" fill="none" xmlns="http://www.w3.org/2000/svg">
<path d="M34.9911 8.26909C35.0158 8.62234 35.0158 8.97566 35.0158 9.3289C35.0158 20.1034 26.9734 32.5181 12.2741 32.5181C7.74554 32.5181 3.53872 31.1806 0 28.8593C0.643424 28.935 1.26202 28.9602 1.9302 28.9602C5.66681 28.9602 9.10658 27.6734 11.8534 25.4781C8.33945 25.4023 5.39464 23.0557 4.38004 19.8258C4.875 19.9015 5.36989 19.952 5.88961 19.952C6.60722 19.952 7.32492 19.851 7.99302 19.6745C4.3306 18.9174 1.58369 15.6371 1.58369 11.6756V11.5747C2.64773 12.1803 3.88515 12.5588 5.1966 12.6092C3.04368 11.1456 1.6332 8.64758 1.6332 5.82146C1.6332 4.30751 2.02907 2.91969 2.722 1.7085C6.65666 6.65417 12.571 9.88394 19.2029 10.2373C19.0792 9.63166 19.005 9.0009 19.005 8.37006C19.005 3.87853 22.5684 0.219788 26.998 0.219788C29.2994 0.219788 31.378 1.20387 32.8381 2.79355C34.6445 2.44031 36.3767 1.75898 37.911 0.825384C37.3171 2.7179 36.055 4.30759 34.3971 5.31684C36.0056 5.14029 37.5646 4.686 38.9998 4.05523C37.9112 5.67008 36.5501 7.10831 34.9911 8.26909Z" fill="#222222"/>
</svg>
